<?xml version="1.0"?>
<svg xmlns="http://www.w3.org/2000/svg" width="512" height="512" viewBox="0 0 128 128"><g><g><circle cx="64" cy="90.64" r="35.626" fill="#756f6f"/><circle cx="64" cy="90.64" r="25.626" fill="#61d7a8"/><path d="M80.82,90.259a1.75,1.75,0,0,0-1.75-1.75H74.464a4.94,4.94,0,0,1,4.606-3.192,1.75,1.75,0,0,0,0-3.5,8.455,8.455,0,0,0-8.256,6.692H65.75V83.445a8.453,8.453,0,0,0,6.691-8.256,1.75,1.75,0,0,0-3.5,0A4.938,4.938,0,0,1,65.75,79.8V75.189a1.75,1.75,0,0,0-3.5,0V79.8a4.939,4.939,0,0,1-3.191-4.606,1.75,1.75,0,0,0-3.5,0,8.453,8.453,0,0,0,6.691,8.256v5.064H57.186a8.455,8.455,0,0,0-8.256-6.692,1.75,1.75,0,1,0,0,3.5,4.94,4.94,0,0,1,4.606,3.192H48.93a1.75,1.75,0,1,0,0,3.5h4.6a4.936,4.936,0,0,1-4.6,3.192,1.75,1.75,0,0,0,0,3.5,8.454,8.454,0,0,0,8.256-6.692H62.25v5.064a8.454,8.454,0,0,0-6.691,8.257,1.75,1.75,0,1,0,3.5,0,4.939,4.939,0,0,1,3.191-4.607v4.607a1.75,1.75,0,0,0,3.5,0v-4.607a4.939,4.939,0,0,1,3.191,4.607,1.75,1.75,0,1,0,3.5,0,8.454,8.454,0,0,0-6.691-8.257V92.009h5.064A8.454,8.454,0,0,0,79.07,98.7a1.75,1.75,0,0,0,0-3.5,4.938,4.938,0,0,1-4.606-3.192H79.07A1.749,1.749,0,0,0,80.82,90.259Z" fill="#00ab94"/><path d="M64,55.014a35.525,35.525,0,0,1,12.66,2.324V46.17a6,6,0,0,0-6-6H57.34a6,6,0,0,0-6,6V57.338A35.525,35.525,0,0,1,64,55.014Z" fill="#dccfca"/><g><path d="M51.34,46.17a6.007,6.007,0,0,1,.059-.8A43.881,43.881,0,0,1,11.754,1.752h-10A53.886,53.886,0,0,0,51.34,55.394Z" fill="#756f6f"/><path d="M116.246,1.752A43.881,43.881,0,0,1,76.6,45.372a6.007,6.007,0,0,1,.059.8v9.224A53.886,53.886,0,0,0,126.246,1.752Z" fill="#756f6f"/></g></g><g><path d="M94.935,74.7a1.751,1.751,0,0,0,1.516-2.621,37.67,37.67,0,0,0-2.9-4.331A1.75,1.75,0,0,0,90.784,69.9a34.123,34.123,0,0,1,2.63,3.928A1.749,1.749,0,0,0,94.935,74.7Z" fill="#2e1700"/><path d="M64,63.264A27.376,27.376,0,1,0,91.376,90.64,27.407,27.407,0,0,0,64,63.264Zm0,51.252A23.876,23.876,0,1,1,87.876,90.64,23.9,23.9,0,0,1,64,114.516Z" fill="#2e1700"/><path d="M79.07,85.317a1.75,1.75,0,0,0,0-3.5,8.455,8.455,0,0,0-8.256,6.692H65.75V83.445a8.453,8.453,0,0,0,6.691-8.256,1.75,1.75,0,0,0-3.5,0A4.938,4.938,0,0,1,65.75,79.8V75.189a1.75,1.75,0,0,0-3.5,0V79.8a4.939,4.939,0,0,1-3.191-4.606,1.75,1.75,0,0,0-3.5,0,8.453,8.453,0,0,0,6.691,8.256v5.064H57.186a8.455,8.455,0,0,0-8.256-6.692,1.75,1.75,0,1,0,0,3.5,4.94,4.94,0,0,1,4.606,3.192H48.93a1.75,1.75,0,1,0,0,3.5h4.6a4.936,4.936,0,0,1-4.6,3.192,1.75,1.75,0,0,0,0,3.5,8.454,8.454,0,0,0,8.256-6.692H62.25v5.064a8.454,8.454,0,0,0-6.691,8.257,1.75,1.75,0,1,0,3.5,0,4.939,4.939,0,0,1,3.191-4.607v4.607a1.75,1.75,0,0,0,3.5,0v-4.607a4.939,4.939,0,0,1,3.191,4.607,1.75,1.75,0,1,0,3.5,0,8.454,8.454,0,0,0-6.691-8.257V92.009h5.064A8.454,8.454,0,0,0,79.07,98.7a1.75,1.75,0,0,0,0-3.5,4.938,4.938,0,0,1-4.606-3.192H79.07a1.75,1.75,0,0,0,0-3.5H74.464A4.94,4.94,0,0,1,79.07,85.317Z" fill="#2e1700"/><path d="M128,1.752A1.75,1.75,0,0,0,126.246,0h-10a1.75,1.75,0,0,0-1.75,1.75,41.871,41.871,0,0,1-36.586,41.7,7.757,7.757,0,0,0-7.25-5.035H57.34a7.756,7.756,0,0,0-7.249,5.033A41.815,41.815,0,0,1,23.269,28.67a1.75,1.75,0,0,0-2.687,2.243A45.3,45.3,0,0,0,49.59,46.928v6.538A52.334,52.334,0,0,1,3.533,3.5h6.5a44.941,44.941,0,0,0,4.613,18.285,1.75,1.75,0,0,0,3.141-1.544A41.563,41.563,0,0,1,13.5,1.752,1.75,1.75,0,0,0,11.754,0h-10A1.75,1.75,0,0,0,0,1.752,55.84,55.84,0,0,0,48.144,56.8a37.348,37.348,0,1,0,52.419,26.052,1.75,1.75,0,1,0-3.423.727A33.88,33.88,0,1,1,64,56.764a33.661,33.661,0,0,1,19.464,6.147,1.75,1.75,0,0,0,2.013-2.864,37.349,37.349,0,0,0-5.623-3.242A55.841,55.841,0,0,0,128,1.752ZM53.09,54.893V46.17a4.255,4.255,0,0,1,4.25-4.25H70.66a4.255,4.255,0,0,1,4.25,4.25v8.722a37.36,37.36,0,0,0-21.82,0Zm25.32-1.427V46.929A45.346,45.346,0,0,0,117.964,3.5h6.5A52.334,52.334,0,0,1,78.41,53.466Z" fill="#2e1700"/></g></g></svg>
