<?xml version="1.0" encoding="iso-8859-1"?>
<!-- Generator: Adobe Illustrator 19.0.0, SVG Export Plug-In . SVG Version: 6.00 Build 0)  -->
<svg version="1.1" id="Capa_1" xmlns="http://www.w3.org/2000/svg" xmlns:xlink="http://www.w3.org/1999/xlink" x="0px" y="0px"
	 viewBox="0 0 511.985 511.985" style="enable-background:new 0 0 511.985 511.985;" xml:space="preserve">
<g>
	<g transform="translate(1 1)">
		<polygon style="fill:#4CAF50;" points="400.063,84.326 254.997,84.326 109.93,84.326 11.455,190.992 7.53,195.259 
			254.997,502.459 502.463,195.259 		"/>
		<g>
			<polygon style="fill:#2E7D32;" points="254.997,84.326 178.197,195.259 109.93,84.326 			"/>
			<polyline style="fill:#2E7D32;" points="16.063,195.259 178.197,195.259 201.066,289.126 209.343,323.259 254.997,502.459 
				7.53,195.259 			"/>
			<polygon style="fill:#2E7D32;" points="400.063,84.326 331.797,195.259 254.997,84.326 			"/>
		</g>
		<polygon style="fill:#4CAF50;" points="331.797,195.259 178.197,195.259 254.997,84.326 		"/>
		<polygon style="fill:#2E7D32;" points="502.463,195.259 254.997,502.459 300.65,323.259 308.927,289.126 331.797,195.259 		"/>
		<polygon style="fill:#F0C419;" points="428.445,394.504 443.233,425.156 473.885,439.944 443.233,454.741 428.445,485.392 
			413.648,454.741 382.997,439.944 413.648,425.156 		"/>
		<polygon style="fill:#FFEB3A;" points="428.445,411.374 437.738,430.651 457.015,439.944 437.738,449.245 428.445,468.522 
			419.144,449.245 399.867,439.944 419.144,430.651 		"/>
		<polygon style="fill:#F0C419;" points="457.015,7.526 471.812,38.177 502.463,52.974 471.812,67.763 457.015,98.414 
			442.227,67.763 411.575,52.974 442.227,38.177 		"/>
		<polygon style="fill:#FFEB3A;" points="457.015,24.396 466.316,43.673 485.593,52.974 466.316,62.267 457.015,81.544 
			447.722,62.267 428.445,52.974 447.722,43.673 		"/>
		<polygon style="fill:#F0C419;" points="52.979,411.571 67.767,442.222 98.419,457.011 67.767,471.807 52.979,502.459 
			38.182,471.807 7.53,457.011 38.182,442.222 		"/>
		<polygon style="fill:#FFEB3A;" points="52.979,428.441 62.271,447.718 81.548,457.011 62.271,466.312 52.979,485.589 
			43.677,466.312 24.4,457.011 43.677,447.718 		"/>
	</g>
	<g>
		<path d="M0.236,197.599c0.072,0.526,0.195,1.043,0.367,1.545c0.213,0.542,0.481,1.059,0.802,1.545
			c0.142,0.318,0.304,0.625,0.486,0.922l247.467,307.2c0.128,0.162,0.316,0.213,0.452,0.367c0.137,0.154,0.341,0.384,0.529,0.555
			c0.188,0.171,0.179,0.273,0.307,0.375h0.085l0.085,0.085c0.068,0.051,0.162,0.077,0.239,0.128c0.275,0.17,0.56,0.324,0.853,0.461
			c0.276,0.164,0.561,0.312,0.853,0.444h0.068c0.145,0.06,0.273,0.179,0.418,0.23s0.265,0,0.384,0.06
			c0.119,0.06,0.179,0.111,0.282,0.137c0.67,0.169,1.357,0.255,2.048,0.256h0.119c0.691-0.001,1.378-0.087,2.048-0.256
			c0.102,0,0.179-0.102,0.282-0.137c0.102-0.034,0.265,0,0.384-0.06c0.119-0.06,0.273-0.171,0.418-0.23h0.068
			c0.292-0.132,0.577-0.28,0.853-0.444c0.293-0.137,0.578-0.291,0.853-0.461c0.068-0.051,0.171-0.068,0.239-0.128l0.085-0.085h0.085
			c0.128-0.102,0.188-0.265,0.307-0.375c0.119-0.111,0.35-0.367,0.529-0.555c0.179-0.188,0.324-0.205,0.452-0.367l247.467-307.2
			c0.335-0.461,0.621-0.956,0.853-1.476c0.085-0.162,0.205-0.307,0.282-0.469c0.375-0.895,0.597-1.847,0.657-2.816
			c0.013-0.244,0.013-0.489,0-0.734c-0.012-0.76-0.127-1.515-0.341-2.244c-0.066-0.264-0.148-0.523-0.247-0.777
			c-0.068-0.171-0.077-0.35-0.162-0.521c-0.365-0.754-0.84-1.45-1.408-2.065L407.472,79.685c-0.539-0.61-1.162-1.138-1.852-1.57
			c-0.077,0,0,0,0,0h-0.043c-1.406-0.843-3.011-1.299-4.651-1.323h-289.86c-1.604,0.007-3.178,0.434-4.565,1.237
			c-0.689,0.432-1.313,0.961-1.852,1.57L2.267,190.473c-0.207,0.287-0.392,0.59-0.555,0.905c-0.335,0.46-0.623,0.951-0.862,1.468
			c-0.205,0.493-0.362,1.004-0.469,1.527c-0.134,0.526-0.216,1.063-0.247,1.604C0.117,196.52,0.151,197.063,0.236,197.599z
			 M402.429,99.389l81.545,88.337h-135.91L402.429,99.389z M255.997,187.726h-60.51l60.51-87.407l60.51,87.407H255.997z
			 M385.789,93.859l-53.41,86.801l-60.1-86.801H385.789z M239.715,93.859l-60.1,86.801l-53.41-86.801H239.715z M109.565,99.389
			l54.366,88.337H51.197c-4.713,0-8.533,3.821-8.533,8.533c0,4.713,3.821,8.533,8.533,8.533h121.293l21.282,87.356
			c0.932,3.82,4.354,6.509,8.286,6.511c0.681,0,1.36-0.08,2.022-0.239c2.2-0.535,4.098-1.924,5.274-3.859
			c1.176-1.935,1.535-4.258,0.998-6.458l-20.292-83.311h131.874l-20.292,83.311c-0.538,2.2-0.179,4.523,0.998,6.458
			c1.176,1.935,3.074,3.323,5.274,3.859c0.662,0.159,1.341,0.239,2.022,0.239c3.932-0.002,7.354-2.691,8.286-6.511l21.282-87.356
			h146.125L273.917,467.619l35.968-141.218c0.864-2.991,0.031-6.215-2.173-8.412c-2.205-2.198-5.431-3.021-8.419-2.147
			s-5.263,3.305-5.937,6.344l-37.359,146.714l-37.385-146.773c-0.674-3.039-2.949-5.471-5.937-6.344
			c-2.988-0.874-6.214-0.051-8.419,2.147c-2.205,2.198-3.038,5.422-2.173,8.412l35.994,141.278L19.794,196.635L109.565,99.389z"/>
		<path d="M4.818,465.699l27.981,13.5l13.491,27.972c1.426,2.944,4.409,4.814,7.68,4.814c3.271,0,6.254-1.87,7.68-4.814l13.5-27.972
			l27.972-13.5c2.944-1.426,4.814-4.409,4.814-7.68c0-3.271-1.87-6.254-4.814-7.68l-27.964-13.508l-13.5-27.964
			c-1.426-2.944-4.409-4.814-7.68-4.814c-3.271,0-6.254,1.87-7.68,4.814l-13.5,27.964L4.818,450.322
			c-2.944,1.426-4.814,4.409-4.814,7.68s1.87,6.254,4.814,7.68V465.699z M42.894,450.911c1.739-0.835,3.142-2.237,3.977-3.977
			l7.1-14.72l7.108,14.72c0.838,1.737,2.24,3.138,3.977,3.977l14.729,7.1l-14.729,7.108c-1.737,0.838-3.138,2.24-3.977,3.977
			l-7.108,14.737l-7.1-14.72c-0.838-1.737-2.24-3.138-3.977-3.977l-14.737-7.125L42.894,450.911z"/>
		<path d="M408.863,61.663l27.972,13.491l13.5,27.964c1.426,2.944,4.409,4.814,7.68,4.814s6.254-1.87,7.68-4.814l13.491-27.964
			l27.981-13.491c2.944-1.426,4.814-4.409,4.814-7.68c0-3.271-1.87-6.254-4.814-7.68l-27.972-13.517L465.703,4.814
			C464.278,1.87,461.294,0,458.023,0s-6.254,1.87-7.68,4.814l-13.508,27.972l-27.972,13.5c-2.944,1.426-4.814,4.409-4.814,7.68
			c0,3.271,1.87,6.254,4.814,7.68V61.663z M446.939,46.866c1.737-0.838,3.138-2.24,3.977-3.977l7.108-14.737l7.1,14.72
			c0.838,1.737,2.24,3.138,3.977,3.977l14.72,7.108l-14.72,7.1c-1.739,0.835-3.142,2.237-3.977,3.977l-7.1,14.72l-7.108-14.72
			c-0.838-1.737-2.24-3.138-3.977-3.977l-14.729-7.083L446.939,46.866z"/>
		<path d="M450.625,419.764l-13.5-27.964c-1.426-2.944-4.409-4.814-7.68-4.814s-6.254,1.87-7.68,4.814l-13.491,27.964
			l-27.981,13.491c-2.944,1.426-4.814,4.409-4.814,7.68s1.87,6.254,4.814,7.68l27.981,13.5l13.491,27.972
			c1.426,2.944,4.409,4.814,7.68,4.814s6.254-1.87,7.68-4.814l13.5-27.972l27.972-13.5c2.944-1.426,4.814-4.409,4.814-7.68
			s-1.87-6.254-4.814-7.68L450.625,419.764z M440.521,448.052c-1.737,0.838-3.138,2.24-3.977,3.977l-7.108,14.737l-7.1-14.72
			c-0.838-1.737-2.24-3.138-3.977-3.977l-14.737-7.125l14.72-7.1c1.739-0.835,3.142-2.237,3.977-3.977l7.1-14.72l7.108,14.72
			c0.838,1.737,2.24,3.138,3.977,3.977l14.729,7.1L440.521,448.052z"/>
	</g>
</g>
<g>
</g>
<g>
</g>
<g>
</g>
<g>
</g>
<g>
</g>
<g>
</g>
<g>
</g>
<g>
</g>
<g>
</g>
<g>
</g>
<g>
</g>
<g>
</g>
<g>
</g>
<g>
</g>
<g>
</g>
</svg>
