<svg id="Capa_1" enable-background="new 0 0 512 512" height="512" viewBox="0 0 512 512" width="512" xmlns="http://www.w3.org/2000/svg"><g><g><path d="m348.34 202c11.06 57.13 57.66 74.52 57.66 150 0 80.58-64.1 150-150 150-82.84 0-150-67.16-150-150 0-74.2 46.54-93.21 57.64-150zm-2.34 150c0-49.71-40.29-90-90-90s-90 40.29-90 90 40.29 90 90 90 90-40.29 90-90z" fill="#6d91ac"/><path d="m348.34 202h-184.7c1.51-7.68 2.36-16.07 2.36-25.37v-10.63c0-16.57 13.43-30 30-30h120c16.57 0 30 13.43 30 30v10.52c0 9.37.85 17.79 2.34 25.48z" fill="#99ebfa"/></g><g><path d="m256 512c90.538 0 160-72.914 160-160 0-46.632-17.268-73.428-32.502-97.07-16.249-25.214-27.498-44.659-27.498-78.41v-10.52c0-22.056-17.944-40-40-40h-120c-22.056 0-40 17.944-40 40v10.63c0 33.344-11.518 53.422-27.574 78.625-15.942 25.024-32.426 50.9-32.426 96.745 0 88.224 71.775 160 160 160zm-110.706-246c10.142-15.919 20.577-32.338 26.29-54h39.417c5.522 0 10-4.477 10-10s-4.478-10-10-10h-35.786c.516-4.996.785-10.13.785-15.37v-10.63c0-11.028 8.972-20 20-20h120c11.028 0 20 8.972 20 20v10.52c0 5.274.269 10.445.785 15.48h-35.784c-5.522 0-10 4.477-10 10s4.478 10 10 10h39.382c5.704 21.76 16.151 38.009 26.303 53.764 15.075 23.393 29.314 45.49 29.314 86.236 0 77.196-62.804 140-140 140s-140-62.804-140-140c0-40.016 14.229-62.352 29.294-86z"/><path d="m256 452c55.141 0 100-44.86 100-100s-44.859-100-100-100-100 44.86-100 100 44.859 100 100 100zm0-180c44.112 0 80 35.888 80 80s-35.888 80-80 80-80-35.888-80-80 35.888-80 80-80z"/><path d="m335.961 40.052c3.32-4.414 2.434-10.683-1.979-14.003-22.654-17.042-49.62-26.049-77.982-26.049s-55.328 9.007-77.981 26.049c-4.413 3.32-5.3 9.589-1.979 14.003 3.32 4.414 9.592 5.3 14.003 1.979 19.159-14.413 41.967-22.031 65.957-22.031s46.798 7.618 65.958 22.031c4.446 3.344 10.707 2.402 14.003-1.979z"/><path d="m256 63c-15.285 0-29.81 4.852-42.004 14.03-4.413 3.321-5.297 9.591-1.976 14.003 3.32 4.413 9.59 5.297 14.003 1.976 8.701-6.548 19.066-10.009 29.977-10.009s21.276 3.461 29.977 10.01c4.449 3.348 10.71 2.399 14.003-1.976 3.321-4.413 2.438-10.682-1.976-14.003-12.194-9.179-26.719-14.031-42.004-14.031z"/><circle cx="256.001" cy="202" r="10"/></g></g></svg>